<?xml version="1.0" standalone="no"?>
<!DOCTYPE svg PUBLIC "-//W3C//DTD SVG 20010904//EN"
 "http://www.w3.org/TR/2001/REC-SVG-20010904/DTD/svg10.dtd">
<svg version="1.0" xmlns="http://www.w3.org/2000/svg"
 width="512.000000pt" height="512.000000pt" viewBox="0 0 512.000000 512.000000"
 preserveAspectRatio="xMidYMid meet">

<g transform="translate(0.000000,512.000000) scale(0.100000,-0.100000)"
fill="#000000" stroke="none">
<path d="M1303 4962 c-66 -24 -123 -61 -163 -109 -17 -21 -127 -225 -243 -453
l-212 -415 -90 -6 c-104 -7 -150 -24 -188 -68 -40 -48 -50 -95 -45 -212 3 -83
8 -111 25 -137 24 -39 79 -82 105 -82 17 0 18 -59 18 -1465 l0 -1465 -200 0
c-297 0 -310 -9 -310 -205 0 -133 10 -163 64 -189 31 -15 238 -16 2496 -16
2258 0 2465 1 2496 16 54 26 64 56 64 192 0 107 -2 122 -22 147 -38 49 -69 55
-288 55 l-200 0 0 1465 0 1465 22 0 c30 0 113 88 121 130 11 50 8 191 -4 233
-14 50 -62 103 -107 118 -20 7 -75 15 -122 18 l-85 6 -211 415 c-144 282 -225
430 -253 462 -26 30 -67 59 -109 80 l-67 33 -1220 2 c-1152 2 -1223 2 -1272
-15z m2486 -172 c21 -10 49 -32 62 -47 24 -29 107 -191 151 -293 13 -30 34
-70 46 -89 13 -19 64 -112 114 -208 l90 -173 -1692 0 -1692 0 90 173 c50 96
101 189 114 208 12 19 33 59 46 89 44 102 127 264 151 293 13 15 40 36 60 47
35 19 73 19 1229 20 1165 0 1194 0 1231 -20z m792 -980 c16 -9 19 -22 19 -80
0 -37 -3 -75 -6 -84 -6 -15 -194 -16 -2034 -16 -1840 0 -2028 1 -2034 16 -3 9
-6 47 -6 84 0 55 4 71 18 79 24 15 4016 15 4043 1z m-133 -1802 l2 -1468 -625
0 -625 0 0 529 0 530 -26 20 c-26 21 -35 21 -614 21 -579 0 -588 0 -614 -21
l-26 -20 0 -530 0 -529 -625 0 -625 0 0 1463 c0 805 3 1467 7 1470 3 4 853 6
1887 5 l1881 -3 3 -1467z m-1398 -993 l0 -475 -490 0 -490 0 0 475 0 475 490
0 490 0 0 -475z m335 -670 l0 -40 -825 0 -825 0 -3 28 c-7 61 -68 57 830 55
l823 -3 0 -40z m-1815 0 l0 -35 -705 0 -705 0 0 35 0 35 705 0 705 0 0 -35z
m3390 0 l0 -35 -705 0 -705 0 0 35 0 35 705 0 705 0 0 -35z"/>
<path d="M3190 4421 l0 -211 25 0 25 0 -2 208 c-3 206 -3 207 -25 210 l-23 3
0 -210z"/>
<path d="M1880 4410 l0 -200 30 0 30 0 0 95 0 95 100 0 100 0 0 -95 c0 -95 0
-95 25 -95 l25 0 0 200 0 200 -25 0 c-25 0 -25 -1 -25 -80 l0 -80 -100 0 -100
0 0 80 0 80 -30 0 -30 0 0 -200z"/>
<path d="M2637 4593 c-4 -3 -7 -24 -7 -45 0 -31 -3 -38 -20 -38 -26 0 -26 -30
-1 -37 17 -4 20 -16 23 -115 3 -101 5 -111 27 -129 16 -13 39 -19 72 -19 42 0
49 3 49 20 0 16 -7 20 -34 20 -56 0 -66 18 -66 126 l0 94 50 0 c43 0 50 3 50
20 0 17 -7 20 -50 20 l-50 0 0 45 c0 37 -3 45 -18 45 -10 0 -22 -3 -25 -7z"/>
<path d="M2350 4503 c-49 -26 -75 -75 -74 -143 1 -93 43 -147 121 -156 46 -6
97 18 127 59 28 38 30 150 3 190 -39 60 -116 81 -177 50z m123 -65 c15 -20 21
-43 21 -78 0 -69 -27 -104 -81 -108 -57 -4 -83 29 -83 108 0 79 26 112 83 108
30 -2 45 -10 60 -30z"/>
<path d="M2915 4506 c-56 -25 -79 -60 -83 -130 -7 -109 45 -170 148 -171 81 0
110 10 110 40 0 22 -2 24 -26 15 -35 -14 -126 -12 -145 3 -20 15 -39 51 -39
71 0 14 17 16 110 16 l110 0 0 44 c0 92 -97 151 -185 112z m115 -56 c11 -11
20 -29 20 -40 0 -18 -7 -20 -85 -20 -95 0 -103 8 -60 54 31 33 94 37 125 6z"/>
<path d="M920 3113 c-8 -3 -23 -12 -32 -21 -17 -14 -18 -48 -18 -437 l0 -422
23 -21 c23 -22 27 -22 393 -22 l371 0 21 23 c22 23 22 26 22 444 0 414 0 420
-21 439 -20 18 -43 19 -383 21 -198 1 -368 -1 -376 -4z m630 -263 l0 -120
-265 0 -265 0 0 120 0 120 265 0 265 0 0 -120z m0 -390 l0 -120 -265 0 -265 0
0 120 0 120 265 0 265 0 0 -120z"/>
<path d="M2191 3109 c-51 -20 -50 -16 -51 -457 l0 -413 25 -24 24 -25 371 0
371 0 24 25 25 24 0 406 c0 450 -1 457 -61 469 -51 10 -701 6 -728 -5z m637
-261 l3 -118 -271 0 -270 0 0 113 c0 63 3 117 7 120 4 4 124 6 267 5 l261 -3
3 -117z m2 -388 l0 -120 -270 0 -270 0 0 120 0 120 270 0 270 0 0 -120z"/>
<path d="M3470 3113 c-8 -3 -23 -12 -32 -21 -17 -14 -18 -48 -18 -437 l0 -422
23 -21 c23 -22 27 -22 389 -22 354 0 366 1 392 21 l26 20 0 423 c0 417 0 423
-21 442 -20 18 -43 19 -383 21 -198 1 -368 -1 -376 -4z m630 -263 l0 -120
-265 0 -265 0 0 120 0 120 265 0 265 0 0 -120z m0 -390 l0 -120 -265 0 -265 0
0 120 0 120 265 0 265 0 0 -120z"/>
<path d="M920 2023 c-8 -3 -23 -12 -32 -21 -17 -14 -18 -48 -18 -437 l0 -422
23 -21 c23 -22 27 -22 393 -22 l371 0 21 23 c22 23 22 26 22 444 0 414 0 420
-21 439 -20 18 -43 19 -383 21 -198 1 -368 -1 -376 -4z m630 -268 l0 -115
-265 0 -265 0 0 115 0 115 265 0 265 0 0 -115z m0 -385 l0 -120 -265 0 -265 0
0 120 0 120 265 0 265 0 0 -120z"/>
<path d="M3470 2023 c-8 -3 -23 -12 -32 -21 -17 -14 -18 -48 -18 -437 l0 -422
23 -21 c23 -22 27 -22 389 -22 354 0 366 1 392 21 l26 20 0 423 c0 417 0 423
-21 442 -20 18 -43 19 -383 21 -198 1 -368 -1 -376 -4z m630 -268 l0 -115
-265 0 -265 0 0 115 0 115 265 0 265 0 0 -115z m0 -385 l0 -120 -265 0 -265 0
0 120 0 120 265 0 265 0 0 -120z"/>
<path d="M2480 1015 l0 -465 80 0 80 0 0 465 0 465 -80 0 -80 0 0 -465z"/>
</g>
</svg>
