<?xml version="1.0" standalone="no"?>
<!DOCTYPE svg PUBLIC "-//W3C//DTD SVG 20010904//EN"
 "http://www.w3.org/TR/2001/REC-SVG-20010904/DTD/svg10.dtd">
<svg version="1.0" xmlns="http://www.w3.org/2000/svg"
 width="50.000000pt" height="50.000000pt" viewBox="0 0 50.000000 50.000000"
 preserveAspectRatio="xMidYMid meet">

<g transform="translate(0.000000,50.000000) scale(0.100000,-0.100000)"
fill="#000000" stroke="none">
<path d="M0 400 c0 -5 11 -10 25 -10 18 0 25 -5 25 -20 0 -15 -7 -20 -25 -20
-21 0 -25 -5 -25 -30 l0 -30 70 0 70 0 0 -41 c0 -38 -2 -41 -22 -34 -26 7 -29
7 -80 -1 -70 -11 -39 -21 55 -18 50 3 97 4 102 4 6 0 74 -1 153 -3 79 -1 146
1 148 5 3 5 -6 8 -20 8 -44 0 -56 10 -56 46 0 24 5 34 15 34 10 0 15 10 15 30
0 25 -4 30 -25 30 -18 0 -25 5 -25 20 0 15 7 20 25 20 14 0 25 5 25 10 0 6
-82 10 -225 10 -143 0 -225 -4 -225 -10z m160 -30 c0 -17 -7 -20 -45 -20 -38
0 -45 3 -45 20 0 17 7 20 45 20 38 0 45 -3 45 -20z m110 0 c0 -17 -7 -20 -45
-20 -38 0 -45 3 -45 20 0 17 7 20 45 20 38 0 45 -3 45 -20z m110 0 c0 -17 -7
-20 -45 -20 -38 0 -45 3 -45 20 0 17 7 20 45 20 38 0 45 -3 45 -20z m50 -50
c0 -6 -75 -10 -205 -10 -130 0 -205 4 -205 10 0 6 75 10 205 10 130 0 205 -4
205 -10z m-250 -64 c0 -19 -4 -38 -10 -41 -6 -4 -10 10 -10 34 0 23 5 41 10
41 6 0 10 -15 10 -34z m70 -6 c0 -22 -4 -40 -9 -40 -28 0 -41 14 -41 46 0 30
3 34 25 34 23 0 25 -4 25 -40z m40 0 c0 -22 -4 -40 -10 -40 -5 0 -10 18 -10
40 0 22 5 40 10 40 6 0 10 -18 10 -40z m70 0 c0 -22 -4 -40 -9 -40 -28 0 -41
14 -41 46 0 30 3 34 25 34 23 0 25 -4 25 -40z m40 0 c0 -22 -4 -40 -10 -40 -5
0 -10 18 -10 40 0 22 5 40 10 40 6 0 10 -18 10 -40z"/>
<path d="M70 170 c-8 -6 -28 -10 -43 -10 -16 0 -26 -4 -23 -8 3 -5 45 -7 93
-5 108 4 80 4 256 -1 81 -3 147 -1 147 4 0 7 -60 21 -87 19 -7 0 -31 -1 -53
-1 -22 0 -47 0 -55 0 -8 0 -33 0 -55 0 -22 0 -46 1 -52 1 -7 1 -30 -2 -51 -5
-21 -4 -43 -2 -50 4 -8 7 -18 7 -27 2z"/>
<path d="M74 119 c-3 -5 -22 -9 -42 -9 -27 0 -33 -3 -24 -12 9 -9 21 -9 48 0
25 7 43 8 59 0 15 -7 33 -7 52 -1 17 6 38 6 55 1 17 -6 38 -6 55 0 18 5 38 5
55 0 17 -6 38 -6 55 -1 18 6 40 6 61 0 23 -8 36 -7 44 1 9 9 5 12 -20 12 -18
0 -32 5 -32 10 0 13 -37 13 -45 0 -8 -13 -58 -13 -71 0 -6 6 -21 6 -42 -2 -23
-9 -40 -9 -59 -2 -19 7 -37 7 -56 0 -19 -7 -37 -7 -57 1 -18 7 -32 7 -36 2z"/>
</g>
</svg>
